<svg id="Layer_1" data-name="Layer 1" xmlns="http://www.w3.org/2000/svg" viewBox="0 0 1004.04 105.79"><defs><style>.cls-1{fill:#fff;}</style></defs><path class="cls-1" d="M85.12.57V105.79H79.78L64,90,37.58,63.6,22.31,48.33,0,26V0H5.54L62.8,57.26V.57ZM0,48l22.31,22.3v35.33H0Z"/><path class="cls-1" d="M202.77.75V23.06H108.91V.75ZM131.23,83.48h71.54v22.31H108.91V38.48l22.31.14h62.18V60.93H131.23Z"/><path class="cls-1" d="M374,.77l-2.66,5.9L336,85.2l-9.06,20.59h-4.83L296.8,49.07l-25.55,56.72h-4.88L222.24,6.67,219.58.77h24.47l1.11,2.46,23.91,53.08,16.26-36.12,7.64-17L294.1.77h5.41l1.11,2.46,7.63,17,16.28,36.12,23.9-53.08L349.54.77Z"/><path class="cls-1" d="M477,58.15a31.85,31.85,0,0,1-27.66,47.64H417.74a30.42,30.42,0,0,1-30.42-30.41h21.85a8.58,8.58,0,0,0,5.79,8.1h34.37a9.54,9.54,0,1,0,0-19.07H419.17a31.93,31.93,0,0,1-23.31-10.16,31.37,31.37,0,0,1-4.35-5.89A31.85,31.85,0,0,1,419.17.71h32.14a30.42,30.42,0,0,1,30.42,30.42H459.88A8.58,8.58,0,0,0,454.09,23H419.17a9.54,9.54,0,0,0,0,19.08h30.16A32,32,0,0,1,477,58.15Z"/><path class="cls-1" d="M593.23.77V23.08H498.62V.77Zm-59.2,105V38.63h22.31v67.16Z"/><path class="cls-1" d="M711.26,53.46A52.34,52.34,0,1,1,658.92,1.12,52.4,52.4,0,0,1,711.26,53.46ZM658.92,23a30.5,30.5,0,1,0,30.49,30.5A30.53,30.53,0,0,0,658.92,23Z"/><path class="cls-1" d="M817.73,30.71a29.95,29.95,0,0,1-19,27.88,24.16,24.16,0,0,1-4.14,1.17,33,33,0,0,1-4.57,1H754v45.05H731.72V38.3H754v.05h33.76a7.64,7.64,0,0,0,0-15.27l-.5,0h0l-.16,0h-3.62v-.05H731.72V.77h57.49s2.39.29,4.56.72,3.75.89,3.75.89A30,30,0,0,1,817.73,30.71Z"/><path class="cls-1" d="M863.89.55V105.79H841.58V.55Z"/><path class="cls-1" d="M920.33,37.34l14,25.2-22.74,41.1-1.2,2.15h-28l3.43-6.21ZM1004,105.79h-28l-1.19-2.15L953.92,65.78,943.65,47.25l-.41-.74-14-25.2,0-.08,1.12-2,9.14-16.49L940.58.39h5.36l1,2.31,9.13,16.5,44.5,80.38Z"/></svg>